<?xml version="1.0" encoding="UTF-8" standalone="no"?><!DOCTYPE svg PUBLIC "-//W3C//DTD SVG 1.1//EN" "http://www.w3.org/Graphics/SVG/1.1/DTD/svg11.dtd"><svg width="100%" height="100%" viewBox="0 0 750 400" version="1.1" xmlns="http://www.w3.org/2000/svg" xmlns:xlink="http://www.w3.org/1999/xlink" xml:space="preserve" style="fill-rule:evenodd;clip-rule:evenodd;stroke-linejoin:round;stroke-miterlimit:1.41421;"><rect id="Artboard1" x="0" y="0" width="750" height="400" style="fill:none;"/><clipPath id="_clip1"><rect x="0" y="0" width="750" height="400"/></clipPath><g clip-path="url(#_clip1)"><path d="M375.586,0.001c0.209,0 0.418,0 0.626,0c3.624,0.009 7.247,0.04 10.87,0.101c6.776,0.115 13.55,0.326 20.317,0.636c27.278,1.247 54.466,4.083 81.261,8.629c23.73,4.026 47.16,9.393 69.984,16.25c19.998,6.008 39.541,13.161 58.289,21.617c15.744,7.101 30.935,15.125 45.229,24.194c13.688,8.685 26.567,18.339 38.125,29.053c9.298,8.621 17.739,17.934 24.93,27.921c3.913,5.434 7.452,11.066 10.547,16.872c3.286,6.165 6.069,12.527 8.271,19.034c2.18,6.443 3.788,13.026 4.778,19.679c0.84,5.642 1.235,11.332 1.182,17.018c0.003,0.221 0.005,0.442 0.005,0.663c0,0.028 0,0.057 0,0.085c-0.001,1.267 -0.049,2.534 -0.142,3.799c-0.299,5.836 -1.072,11.654 -2.305,17.4c-1.237,5.765 -2.937,11.456 -5.061,17.029c-2.544,6.676 -5.695,13.182 -9.363,19.465c-3.476,5.955 -7.414,11.711 -11.734,17.249c-6.147,7.879 -13.063,15.314 -20.545,22.3c-9.084,8.481 -19.002,16.301 -29.488,23.504c-13.89,9.541 -28.777,18.005 -44.275,25.519c-18.778,9.103 -38.465,16.818 -58.665,23.323c-12.858,4.14 -25.931,7.789 -39.155,10.98c-14.477,3.493 -29.134,6.437 -43.906,8.863c-17.244,2.832 -34.645,4.958 -52.121,6.414c-19.158,1.596 -38.406,2.386 -57.654,2.402l0,0l-0.586,0c0,0 -0.586,0 -0.586,0l0,0c-19.248,-0.016 -38.496,-0.806 -57.653,-2.402c-17.477,-1.456 -34.878,-3.582 -52.122,-6.414c-14.772,-2.426 -29.429,-5.37 -43.906,-8.863c-13.224,-3.191 -26.297,-6.84 -39.155,-10.98c-20.2,-6.505 -39.887,-14.22 -58.665,-23.323c-15.498,-7.514 -30.385,-15.978 -44.275,-25.519c-10.486,-7.203 -20.403,-15.023 -29.488,-23.504c-7.482,-6.986 -14.398,-14.421 -20.545,-22.3c-4.32,-5.538 -8.258,-11.294 -11.734,-17.249c-3.668,-6.283 -6.819,-12.789 -9.363,-19.465c-2.124,-5.573 -3.823,-11.264 -5.061,-17.029c-1.233,-5.746 -2.006,-11.564 -2.305,-17.4c-0.093,-1.265 -0.141,-2.532 -0.142,-3.799c0,-0.028 0,-0.057 0,-0.085c0,-0.221 0.002,-0.442 0.005,-0.663c-0.053,-5.686 0.342,-11.376 1.182,-17.018c0.99,-6.653 2.598,-13.236 4.778,-19.679c2.202,-6.507 4.985,-12.869 8.271,-19.034c3.095,-5.806 6.634,-11.438 10.547,-16.872c7.191,-9.987 15.632,-19.3 24.93,-27.921c11.558,-10.714 24.437,-20.368 38.125,-29.053c14.294,-9.069 29.485,-17.093 45.229,-24.194c18.748,-8.456 38.291,-15.609 58.289,-21.617c22.824,-6.857 46.255,-12.224 69.984,-16.25c26.795,-4.546 53.983,-7.382 81.261,-8.629c6.768,-0.31 13.541,-0.521 20.318,-0.636c3.622,-0.061 7.245,-0.092 10.869,-0.101c0.209,0 0.417,0 0.626,0l0,-0.001l1.172,0l0,0.001Zm-41.042,339.878c0.984,3.437 2.035,6.86 3.167,10.264c1.252,3.764 2.602,7.505 4.082,11.208c1.294,3.237 2.686,6.446 4.213,9.609c1.406,2.91 2.925,5.783 4.606,8.585c1.328,2.213 2.758,4.384 4.333,6.477c1.413,1.879 2.944,3.698 4.644,5.395c0.544,0.543 1.106,1.073 1.688,1.587c0.441,0.39 0.893,0.77 1.358,1.138c0.334,0.265 0.675,0.524 1.023,0.776c2.298,1.667 4.944,3.066 7.889,3.707c0.454,0.099 0.914,0.179 1.378,0.24c0.493,0.064 0.99,0.106 1.489,0.124l0,-58.309c-13.295,-0.008 -26.59,-0.272 -39.87,-0.801Zm80.912,0c-13.28,0.529 -26.575,0.793 -39.87,0.801l0,58.309c0.499,-0.018 0.996,-0.06 1.49,-0.124c0.463,-0.061 0.923,-0.141 1.377,-0.24c2.945,-0.641 5.591,-2.04 7.889,-3.707c0.348,-0.252 0.689,-0.511 1.023,-0.776c0.465,-0.368 0.917,-0.748 1.358,-1.138c0.582,-0.514 1.144,-1.044 1.688,-1.587c1.701,-1.697 3.231,-3.516 4.644,-5.395c1.575,-2.093 3.005,-4.264 4.333,-6.477c1.681,-2.802 3.2,-5.675 4.606,-8.585c1.527,-3.163 2.919,-6.372 4.213,-9.609c1.48,-3.703 2.83,-7.444 4.082,-11.208c1.132,-3.404 2.183,-6.827 3.167,-10.264Zm-131.734,-3.352c2.55,4.277 5.278,8.477 8.204,12.574c2.396,3.356 4.925,6.642 7.601,9.84c2.072,2.476 4.231,4.898 6.485,7.255c1.761,1.842 3.58,3.644 5.46,5.399c1.398,1.304 2.829,2.583 4.296,3.831c1.213,1.034 2.451,2.046 3.713,3.036c7.584,5.951 16.097,11.115 25.486,14.782c1.244,0.486 2.504,0.946 3.776,1.377c1.885,0.639 3.8,1.214 5.739,1.722c2.683,0.702 5.414,1.274 8.175,1.703c1.9,0.295 3.814,0.523 5.735,0.681c-1.992,-0.772 -3.829,-1.84 -5.493,-3.047c-0.361,-0.262 -0.715,-0.53 -1.061,-0.805c-0.481,-0.381 -0.948,-0.774 -1.404,-1.176c-0.598,-0.529 -1.176,-1.074 -1.736,-1.632c-0.712,-0.712 -1.395,-1.444 -2.053,-2.193c-0.822,-0.935 -1.604,-1.895 -2.354,-2.874c-0.984,-1.283 -1.911,-2.598 -2.794,-3.935c-1.132,-1.714 -2.191,-3.463 -3.191,-5.236c-1.262,-2.234 -2.433,-4.506 -3.534,-6.801c-1.367,-2.85 -2.626,-5.737 -3.804,-8.648c-1.494,-3.692 -2.857,-7.422 -4.121,-11.175c-1.268,-3.77 -2.437,-7.564 -3.523,-11.375c-4.359,-0.179 -8.717,-0.387 -13.072,-0.623c-12.198,-0.663 -24.379,-1.552 -36.53,-2.68Zm182.556,0c-12.151,1.128 -24.332,2.017 -36.53,2.68c-4.355,0.236 -8.713,0.444 -13.072,0.623c-1.086,3.811 -2.255,7.605 -3.523,11.375c-1.264,3.753 -2.627,7.483 -4.121,11.175c-1.178,2.911 -2.437,5.798 -3.804,8.648c-1.101,2.295 -2.272,4.567 -3.534,6.801c-1,1.773 -2.059,3.522 -3.191,5.236c-0.883,1.337 -1.81,2.652 -2.794,3.935c-0.75,0.979 -1.532,1.939 -2.354,2.874c-0.658,0.749 -1.341,1.481 -2.053,2.193c-0.56,0.558 -1.138,1.103 -1.736,1.632c-0.456,0.402 -0.923,0.795 -1.404,1.176c-0.346,0.275 -0.7,0.543 -1.061,0.805c-1.664,1.207 -3.501,2.275 -5.493,3.047c1.922,-0.158 3.835,-0.386 5.735,-0.681c2.761,-0.429 5.492,-1.001 8.175,-1.703c1.939,-0.508 3.854,-1.083 5.739,-1.722c1.273,-0.431 2.532,-0.891 3.776,-1.377c9.389,-3.667 17.902,-8.831 25.486,-14.782c1.262,-0.99 2.5,-2.002 3.713,-3.036c1.467,-1.248 2.898,-2.527 4.296,-3.831c1.88,-1.755 3.699,-3.557 5.461,-5.399c2.253,-2.357 4.412,-4.779 6.484,-7.255c2.676,-3.198 5.205,-6.484 7.601,-9.84c2.927,-4.097 5.654,-8.297 8.204,-12.574Zm-237.842,-6.879c7.731,9.257 16.407,17.934 25.998,25.832c2.557,2.107 5.178,4.157 7.862,6.145c3.13,2.319 6.344,4.556 9.639,6.701c3.756,2.445 7.617,4.772 11.576,6.97c4.778,2.652 9.7,5.116 14.751,7.371c6.089,2.72 12.366,5.136 18.793,7.216c8.12,2.629 16.479,4.72 24.983,6.228c5.341,0.947 10.738,1.662 16.163,2.144c-1.365,-0.285 -2.72,-0.604 -4.063,-0.956c-1.969,-0.515 -3.913,-1.1 -5.827,-1.749c-1.551,-0.525 -3.083,-1.092 -4.593,-1.698c-9.343,-3.748 -17.816,-8.949 -25.374,-14.924c-1.155,-0.913 -2.289,-1.845 -3.404,-2.794c-1.479,-1.259 -2.923,-2.549 -4.333,-3.865c-1.895,-1.768 -3.728,-3.584 -5.503,-5.441c-2.27,-2.373 -4.444,-4.813 -6.53,-7.306c-2.693,-3.217 -5.238,-6.524 -7.649,-9.9c-3.075,-4.306 -5.932,-8.724 -8.594,-13.225c-4.429,-0.418 -8.853,-0.868 -13.272,-1.35c-13.595,-1.483 -27.145,-3.273 -40.623,-5.399Zm293.128,0.001c-13.478,2.125 -27.028,3.915 -40.623,5.398c-4.419,0.482 -8.843,0.932 -13.272,1.35c-2.662,4.501 -5.519,8.919 -8.594,13.225c-2.411,3.376 -4.956,6.683 -7.648,9.9c-2.086,2.493 -4.261,4.933 -6.531,7.306c-1.775,1.857 -3.608,3.673 -5.503,5.441c-1.41,1.316 -2.854,2.606 -4.333,3.865c-1.115,0.949 -2.249,1.881 -3.404,2.794c-7.558,5.975 -16.031,11.176 -25.374,14.924c-1.51,0.606 -3.042,1.173 -4.592,1.698c-1.915,0.649 -3.859,1.234 -5.828,1.749c-1.343,0.352 -2.698,0.671 -4.063,0.956c5.425,-0.482 10.822,-1.197 16.164,-2.144c8.503,-1.508 16.862,-3.599 24.982,-6.228c6.427,-2.08 12.704,-4.496 18.793,-7.216c5.051,-2.255 9.973,-4.719 14.751,-7.371c4.132,-2.294 8.157,-4.729 12.067,-7.291c3.289,-2.156 6.496,-4.401 9.619,-6.73c2.678,-1.997 5.293,-4.055 7.844,-6.169c9.411,-7.798 17.936,-16.347 25.545,-25.457Zm56.81,-11.189c-2.668,0.639 -5.341,1.263 -8.019,1.87c-14.267,3.236 -28.674,6.021 -43.168,8.411c-1.322,0.218 -2.645,0.433 -3.969,0.645c-7.826,9.476 -16.631,18.357 -26.383,26.438c-2.565,2.126 -5.196,4.196 -7.889,6.204c-3.141,2.342 -6.368,4.602 -9.676,6.77c-3.934,2.578 -7.984,5.028 -12.142,7.336c-4.809,2.67 -9.763,5.149 -14.846,7.419c-6.131,2.738 -12.451,5.171 -18.921,7.265c-8.178,2.648 -16.596,4.754 -25.16,6.272c-0.991,0.176 -1.984,0.344 -2.979,0.504c4.092,-0.384 8.174,-0.846 12.241,-1.387c15.636,-2.079 31.058,-5.327 46.021,-9.721c20.425,-5.998 39.99,-14.135 58.057,-24.242c11.486,-6.425 22.364,-13.643 32.463,-21.586c8.746,-6.877 16.907,-14.297 24.37,-22.198Zm-406.748,0c7.158,7.577 14.958,14.713 23.299,21.351c10.039,7.989 20.86,15.258 32.296,21.736c17.984,10.189 37.478,18.415 57.847,24.51c14.918,4.464 30.302,7.784 45.907,9.939c4.584,0.633 9.186,1.165 13.801,1.597c-0.994,-0.16 -1.986,-0.327 -2.977,-0.503c-8.564,-1.518 -16.982,-3.624 -25.16,-6.272c-6.47,-2.094 -12.789,-4.527 -18.921,-7.265c-5.083,-2.27 -10.037,-4.749 -14.846,-7.419c-4.158,-2.308 -8.208,-4.758 -12.142,-7.336c-3.308,-2.168 -6.535,-4.428 -9.676,-6.77c-2.693,-2.008 -5.323,-4.078 -7.889,-6.204c-9.752,-8.081 -18.557,-16.962 -26.383,-26.438c-1.324,-0.212 -2.647,-0.427 -3.969,-0.645c-14.494,-2.39 -28.901,-5.175 -43.168,-8.411c-2.678,-0.607 -5.351,-1.23 -8.019,-1.87Zm479.855,-22.903c-5.867,2.372 -11.809,4.61 -17.807,6.73c-9.823,3.47 -19.799,6.623 -29.879,9.506c-7.769,2.221 -15.601,4.283 -23.481,6.198c-7.472,8.023 -15.657,15.562 -24.44,22.552c-10.085,8.026 -20.958,15.329 -32.446,21.837c-18.066,10.235 -37.648,18.499 -58.108,24.62c-14.984,4.484 -30.435,7.819 -46.108,9.983c-0.485,0.067 -0.971,0.133 -1.457,0.198c6.629,-0.569 13.242,-1.272 19.832,-2.112c16.682,-2.126 33.214,-5.126 49.449,-9.031c12.977,-3.122 25.766,-6.822 38.274,-11.119c9.361,-3.217 18.566,-6.769 27.567,-10.664c6.965,-3.015 13.808,-6.235 20.504,-9.666c5.341,-2.736 10.588,-5.607 15.727,-8.613c3.903,-2.283 7.743,-4.645 11.513,-7.086c2.846,-1.842 5.651,-3.729 8.413,-5.662c15.816,-11.066 30.252,-23.65 42.447,-37.671Zm-552.962,0c12.195,14.021 26.631,26.606 42.447,37.671c2.762,1.933 5.567,3.82 8.413,5.662c3.77,2.441 7.61,4.803 11.514,7.086c5.138,3.006 10.385,5.877 15.726,8.613c6.445,3.302 13.027,6.41 19.722,9.326c8.982,3.912 18.168,7.481 27.512,10.715c12.775,4.421 25.844,8.217 39.111,11.408c16.235,3.905 32.767,6.905 49.449,9.031c6.59,0.84 13.203,1.543 19.832,2.112c-15.666,-2.089 -31.117,-5.346 -46.111,-9.75c-20.517,-6.025 -40.169,-14.198 -58.318,-24.351c-11.539,-6.455 -22.468,-13.707 -32.615,-21.686c-9.191,-7.228 -17.739,-15.053 -25.515,-23.403c-7.88,-1.915 -15.712,-3.977 -23.481,-6.198c-10.08,-2.883 -20.056,-6.036 -29.879,-9.506c-5.998,-2.12 -11.94,-4.358 -17.807,-6.73Zm648.649,-76.707c-1.339,4.022 -3.123,7.937 -5.268,11.698c-4.797,8.41 -11.347,16.032 -18.775,22.884c-5.364,4.948 -11.203,9.513 -17.336,13.756c-7.321,5.064 -15.065,9.674 -23.064,13.921c-7.385,3.922 -14.992,7.535 -22.747,10.893c-2.075,0.898 -4.161,1.778 -6.256,2.64c-12.521,14.695 -27.489,27.846 -43.945,39.359c-2.773,1.941 -5.59,3.836 -8.447,5.686c-3.785,2.45 -7.641,4.821 -11.56,7.114c-5.158,3.017 -10.424,5.899 -15.786,8.645c-6.719,3.443 -13.587,6.675 -20.577,9.701c-9.031,3.908 -18.266,7.472 -27.66,10.699c-12.547,4.311 -25.375,8.023 -38.393,11.154c-16.283,3.917 -32.863,6.926 -49.594,9.058c-1.323,0.168 -2.648,0.332 -3.973,0.489c0.552,-0.046 1.104,-0.094 1.656,-0.141c17.032,-1.478 33.99,-3.595 50.795,-6.386c15.071,-2.502 30.021,-5.545 44.778,-9.164c12.487,-3.062 24.836,-6.537 36.992,-10.451c20.441,-6.582 40.355,-14.407 59.329,-23.66c15.145,-7.386 29.698,-15.688 43.29,-25.025c10.225,-7.023 19.906,-14.636 28.798,-22.879c7.657,-7.099 14.728,-14.667 20.994,-22.7c4.152,-5.322 7.949,-10.847 11.319,-16.558c3.788,-6.42 7.035,-13.075 9.64,-19.912c2.145,-5.631 3.855,-11.383 5.088,-17.211c0.255,-1.2 0.488,-2.404 0.702,-3.61Zm-744.336,0.001c0.214,1.206 0.448,2.409 0.702,3.609c1.233,5.828 2.942,11.58 5.088,17.211c2.526,6.63 5.656,13.09 9.298,19.33c3.454,5.917 7.368,11.637 11.661,17.14c6.113,7.837 12.992,15.231 20.434,22.179c9.044,8.443 18.918,16.229 29.358,23.4c13.84,9.508 28.676,17.941 44.119,25.428c18.725,9.078 38.357,16.771 58.5,23.257c12.156,3.914 24.505,7.389 36.992,10.451c15.116,3.707 30.433,6.81 45.877,9.346c16.445,2.701 33.035,4.758 49.696,6.204c0.552,0.047 1.104,0.095 1.656,0.141c-1.325,-0.157 -2.649,-0.321 -3.973,-0.489c-16.731,-2.132 -33.311,-5.141 -49.594,-9.058c-13.018,-3.131 -25.846,-6.843 -38.393,-11.154c-9.393,-3.227 -18.629,-6.791 -27.66,-10.699c-6.99,-3.026 -13.858,-6.258 -20.577,-9.701c-5.361,-2.746 -10.628,-5.628 -15.786,-8.645c-3.919,-2.293 -7.774,-4.664 -11.56,-7.114c-2.857,-1.85 -5.674,-3.745 -8.447,-5.686c-16.456,-11.513 -31.424,-24.664 -43.945,-39.359c-2.095,-0.862 -4.181,-1.742 -6.255,-2.64c-7.756,-3.358 -15.363,-6.971 -22.748,-10.893c-7.999,-4.247 -15.743,-8.857 -23.064,-13.921c-6.133,-4.243 -11.972,-8.808 -17.336,-13.756c-7.428,-6.852 -13.978,-14.474 -18.775,-22.884c-2.145,-3.761 -3.928,-7.675 -5.268,-11.697Zm426.455,43.041c-17.896,0.422 -35.799,0.628 -53.701,0.632l0,77.156c13.391,-0.008 26.782,-0.276 40.158,-0.814c0.353,-1.25 0.698,-2.503 1.034,-3.757c1.737,-6.477 3.259,-12.996 4.616,-19.538c1.848,-8.908 3.389,-17.862 4.691,-26.839c1.294,-8.926 2.35,-17.876 3.202,-26.84Zm-108.573,0c0.851,8.964 1.907,17.914 3.201,26.84c1.302,8.977 2.843,17.931 4.691,26.839c1.357,6.542 2.879,13.061 4.616,19.538c0.336,1.254 0.681,2.507 1.034,3.758c13.168,0.529 26.351,0.797 39.533,0.812c0.209,0 0.417,0.001 0.625,0.001l0,-77.156c-17.902,-0.004 -35.805,-0.21 -53.7,-0.632Zm-65.595,-2.545c1.907,9.657 4.314,19.244 7.274,28.706c3.156,10.094 6.94,20.05 11.458,29.76c2.787,5.991 5.855,11.888 9.241,17.649c11.226,1.052 22.48,1.899 33.748,2.551c5.396,0.312 10.795,0.58 16.197,0.804c-0.244,-0.867 -0.484,-1.736 -0.72,-2.604c-1.753,-6.46 -3.29,-12.963 -4.661,-19.49c-1.867,-8.889 -3.426,-17.825 -4.745,-26.785c-1.374,-9.335 -2.486,-18.697 -3.376,-28.074c-11.99,-0.289 -23.977,-0.675 -35.958,-1.163c-9.49,-0.386 -18.977,-0.835 -28.458,-1.354Zm239.762,0c-9.481,0.519 -18.968,0.968 -28.457,1.354c-11.982,0.488 -23.969,0.874 -35.959,1.163c-0.889,9.377 -2.002,18.739 -3.376,28.074c-1.318,8.96 -2.878,17.896 -4.745,26.785c-1.371,6.527 -2.908,13.03 -4.661,19.49c-0.236,0.868 -0.476,1.736 -0.72,2.604c3.072,-0.128 6.143,-0.269 9.213,-0.425c13.603,-0.69 27.187,-1.661 40.732,-2.93c3.386,-5.761 6.454,-11.658 9.241,-17.649c4.599,-9.884 8.437,-20.023 11.627,-30.302c2.882,-9.286 5.235,-18.691 7.105,-28.164Zm-305.78,-4.82c4.452,16.097 10.941,31.787 19.48,46.637c5.459,9.494 11.762,18.652 18.885,27.314c13.116,2.088 26.302,3.857 39.532,5.333c4.897,0.547 9.799,1.053 14.707,1.52c-3.267,-5.603 -6.237,-11.332 -8.943,-17.149c-4.535,-9.747 -8.333,-19.74 -11.502,-29.871c-2.992,-9.568 -5.422,-19.263 -7.343,-29.03c-17.219,-0.952 -34.421,-2.134 -51.593,-3.583c-4.41,-0.372 -8.818,-0.762 -13.223,-1.171Zm371.798,0c-4.405,0.409 -8.813,0.799 -13.223,1.171c-17.172,1.449 -34.374,2.631 -51.593,3.583c-1.921,9.767 -4.351,19.462 -7.343,29.03c-3.169,10.131 -6.967,20.124 -11.502,29.871c-2.706,5.817 -5.676,11.546 -8.943,17.149c3.8,-0.361 7.597,-0.747 11.391,-1.156c14.343,-1.546 28.636,-3.434 42.848,-5.697c7.252,-8.82 13.654,-18.152 19.182,-27.832c8.393,-14.697 14.783,-30.209 19.183,-46.119Zm-431.743,-6.909c3.196,10.207 7.416,20.18 12.585,29.782c6.106,11.346 13.527,22.17 22.069,32.304c2.119,2.515 4.306,4.986 6.559,7.413c2.866,0.695 5.738,1.371 8.615,2.028c13.875,3.168 27.883,5.906 41.975,8.269c1.62,0.272 3.241,0.538 4.862,0.8c-7.006,-8.615 -13.21,-17.709 -18.59,-27.129c-8.492,-14.871 -14.943,-30.571 -19.365,-46.673c-6.872,-0.644 -13.738,-1.334 -20.597,-2.076c-11.425,-1.236 -22.83,-2.615 -34.202,-4.175c-1.304,-0.179 -2.608,-0.36 -3.911,-0.543Zm491.688,0c-1.303,0.183 -2.607,0.364 -3.911,0.543c-11.371,1.56 -22.777,2.939 -34.202,4.175c-6.859,0.742 -13.725,1.432 -20.597,2.076c-4.422,16.102 -10.873,31.802 -19.365,46.673c-5.38,9.42 -11.584,18.514 -18.59,27.129c0.582,-0.094 1.163,-0.188 1.745,-0.284c14.492,-2.37 28.899,-5.134 43.166,-8.348c3.523,-0.794 7.037,-1.615 10.541,-2.465c1.955,-2.105 3.86,-4.244 5.714,-6.416c8.756,-10.256 16.363,-21.228 22.613,-32.743c5.306,-9.774 9.628,-19.935 12.886,-30.34Zm64.221,-11.712c-3.866,0.919 -7.748,1.789 -11.642,2.617c-8.955,1.906 -17.972,3.596 -27.023,5.136c-8.071,1.373 -16.17,2.624 -24.288,3.779c-3.228,10.415 -7.518,20.589 -12.788,30.38c-6.138,11.404 -13.597,22.283 -22.182,32.47c-1.813,2.152 -3.676,4.272 -5.588,6.36c7.036,-1.729 14.032,-3.575 20.978,-5.549c10.08,-2.865 20.056,-5.999 29.881,-9.45c6.929,-2.434 13.783,-5.025 20.535,-7.798c2.296,-2.703 4.509,-5.458 6.633,-8.264c2.05,-2.709 4.016,-5.465 5.89,-8.265c2.476,-3.698 4.793,-7.473 6.937,-11.318c3.184,-5.71 5.987,-11.576 8.364,-17.566c1.637,-4.123 3.071,-8.306 4.293,-12.532Zm-620.13,0c1.222,4.226 2.656,8.409 4.293,12.532c2.377,5.99 5.18,11.856 8.364,17.566c2.144,3.845 4.461,7.62 6.937,11.318c1.875,2.8 3.84,5.556 5.89,8.265c2.124,2.806 4.338,5.561 6.634,8.264c6.224,2.556 12.535,4.958 18.91,7.224c10.06,3.576 20.282,6.815 30.614,9.77c7.239,2.07 14.532,4 21.868,5.803c-1.613,-1.763 -3.193,-3.55 -4.737,-5.358c-8.802,-10.308 -16.447,-21.338 -22.729,-32.912c-5.409,-9.963 -9.801,-20.326 -13.092,-30.94c-8.117,-1.155 -16.216,-2.406 -24.287,-3.779c-9.051,-1.54 -18.068,-3.23 -27.023,-5.136c-3.894,-0.828 -7.776,-1.698 -11.642,-2.617Zm-63.48,-28.81c0.21,2.009 0.538,4.01 0.979,5.992c1.349,6.056 3.761,11.917 6.959,17.439c4.818,8.318 11.364,15.847 18.767,22.615c5.365,4.906 11.199,9.431 17.323,13.637c7.125,4.893 14.648,9.359 22.411,13.481c7.125,3.784 14.457,7.278 21.931,10.534c1.664,0.725 3.336,1.438 5.014,2.14c-1.859,-2.234 -3.661,-4.502 -5.404,-6.805c-2.062,-2.724 -4.038,-5.495 -5.924,-8.311c-2.49,-3.719 -4.821,-7.516 -6.978,-11.384c-3.203,-5.746 -6.023,-11.648 -8.415,-17.675c-1.718,-4.329 -3.215,-8.722 -4.479,-13.164c-2.12,-0.511 -4.235,-1.038 -6.344,-1.582c-5.816,-1.5 -11.588,-3.13 -17.274,-4.957c-3.703,-1.189 -7.371,-2.463 -10.976,-3.856c-3.297,-1.274 -6.545,-2.648 -9.695,-4.172c-2.175,-1.052 -4.305,-2.176 -6.352,-3.402c-1.703,-1.02 -3.35,-2.11 -4.898,-3.297c-2.03,-1.557 -3.908,-3.29 -5.376,-5.261c-0.472,-0.632 -0.9,-1.291 -1.269,-1.972Zm747.09,0c-0.369,0.681 -0.797,1.34 -1.269,1.972c-1.468,1.971 -3.346,3.704 -5.376,5.261c-1.547,1.187 -3.195,2.277 -4.898,3.297c-2.047,1.226 -4.177,2.35 -6.352,3.402c-3.15,1.524 -6.398,2.898 -9.695,4.172c-3.605,1.393 -7.273,2.667 -10.976,3.856c-5.686,1.827 -11.458,3.457 -17.274,4.957c-2.109,0.544 -4.224,1.071 -6.344,1.582c-1.264,4.442 -2.761,8.835 -4.479,13.164c-2.392,6.027 -5.212,11.929 -8.415,17.675c-2.157,3.868 -4.488,7.665 -6.978,11.384c-1.885,2.816 -3.862,5.587 -5.924,8.311c-1.742,2.303 -3.545,4.571 -5.404,6.804c0.943,-0.394 1.884,-0.792 2.822,-1.193c8.007,-3.425 15.86,-7.119 23.479,-11.139c7.992,-4.217 15.733,-8.794 23.055,-13.822c6.124,-4.206 11.958,-8.731 17.324,-13.637c7.402,-6.768 13.948,-14.297 18.766,-22.615c3.198,-5.522 5.61,-11.383 6.959,-17.439c0.441,-1.982 0.769,-3.983 0.979,-5.992Zm-372.959,-65.204l0,119.632c17.934,-0.004 35.868,-0.211 53.795,-0.635c0.084,-0.898 0.165,-1.796 0.245,-2.694c1.043,-11.74 1.742,-23.502 2.135,-35.271c0.355,-10.637 0.459,-21.28 0.322,-31.92c-0.146,-11.229 -0.564,-22.457 -1.276,-33.67c-0.314,-4.936 -0.684,-9.87 -1.116,-14.799c-7.831,-0.186 -15.664,-0.331 -23.497,-0.436c-9.59,-0.128 -19.181,-0.192 -28.772,-0.207c-0.612,0 -1.224,0 -1.836,0Zm-1.172,0c-0.612,0 -1.224,0 -1.836,0c-9.591,0.015 -19.182,0.079 -28.772,0.207c-7.833,0.105 -15.666,0.25 -23.497,0.436c-0.432,4.929 -0.802,9.863 -1.116,14.799c-0.712,11.213 -1.13,22.441 -1.276,33.67c-0.137,10.64 -0.033,21.283 0.322,31.92c0.393,11.769 1.092,23.531 2.135,35.271c0.08,0.898 0.161,1.796 0.245,2.694c17.927,0.424 35.861,0.631 53.795,0.635l0,-119.632Zm-55.283,0.671c-14.824,0.36 -29.644,0.868 -44.454,1.534c-6.804,0.306 -13.605,0.646 -20.404,1.021c-1.438,7.932 -2.543,15.908 -3.335,23.905c-1.274,12.86 -1.737,25.78 -1.426,38.683c0.364,15.088 1.797,30.162 4.391,45.091c0.321,1.848 0.66,3.694 1.018,5.537c10.316,0.566 20.638,1.05 30.964,1.459c11.181,0.443 22.367,0.797 33.556,1.068c-0.044,-0.472 -0.087,-0.943 -0.13,-1.415c-1.027,-11.313 -1.734,-22.647 -2.155,-33.988c-0.426,-11.484 -0.559,-22.976 -0.41,-34.465c0.145,-11.244 0.564,-22.485 1.277,-33.714c0.312,-4.908 0.68,-9.814 1.108,-14.716Zm111.738,0c0.428,4.902 0.796,9.808 1.108,14.716c0.713,11.229 1.132,22.47 1.277,33.714c0.149,11.489 0.016,22.981 -0.41,34.465c-0.421,11.341 -1.128,22.675 -2.155,33.988c-0.043,0.472 -0.086,0.943 -0.13,1.415c11.189,-0.271 22.375,-0.625 33.556,-1.068c10.326,-0.409 20.648,-0.893 30.964,-1.459c0.319,-1.646 0.624,-3.294 0.914,-4.944c2.586,-14.702 4.043,-29.546 4.461,-44.407c0.364,-12.914 -0.05,-25.847 -1.272,-38.722c-0.798,-8.413 -1.943,-16.802 -3.455,-25.143c-6.799,-0.375 -13.6,-0.715 -20.404,-1.021c-14.81,-0.666 -29.63,-1.174 -44.454,-1.534Zm66.056,2.622c1.385,7.677 2.461,15.395 3.243,23.134c1.324,13.1 1.808,26.262 1.491,39.407c-0.365,15.131 -1.801,30.247 -4.403,45.218c-0.309,1.777 -0.634,3.552 -0.976,5.324c16.441,-0.912 32.867,-2.034 49.265,-3.396c5.215,-0.434 10.427,-0.892 15.636,-1.377c0.93,-3.433 1.768,-6.883 2.513,-10.348c3.059,-14.224 4.563,-28.687 4.563,-43.147c0,-14.46 -1.504,-28.923 -4.563,-43.147c-0.493,-2.289 -1.025,-4.572 -1.598,-6.847c-6.187,-0.58 -12.379,-1.122 -18.574,-1.629c-15.512,-1.27 -31.048,-2.325 -46.597,-3.192Zm-243.849,0c-15.55,0.867 -31.086,1.922 -46.598,3.192c-6.195,0.507 -12.387,1.049 -18.574,1.629c-0.623,2.475 -1.199,4.96 -1.727,7.451c-2.972,14.03 -4.434,28.287 -4.434,42.543c0,14.665 1.547,29.332 4.694,43.751c0.712,3.262 1.506,6.511 2.382,9.744c5.209,0.485 10.421,0.943 15.636,1.377c16.399,1.362 32.824,2.484 49.265,3.396c-0.342,-1.772 -0.667,-3.547 -0.976,-5.324c-2.602,-14.971 -4.038,-30.087 -4.403,-45.218c-0.317,-13.145 0.167,-26.307 1.491,-39.407c0.782,-7.739 1.858,-15.457 3.244,-23.134Zm-66.399,4.936c-8.913,0.843 -17.814,1.764 -26.702,2.777c-10.755,1.225 -21.49,2.581 -32.192,4.108c-2.554,9.102 -4.293,18.37 -5.196,27.698c-1.673,17.265 -0.504,34.728 3.498,51.712c0.802,3.402 1.717,6.785 2.743,10.142c2.624,0.371 5.249,0.732 7.876,1.084c10.839,1.451 21.707,2.742 32.593,3.904c6.091,0.651 12.187,1.261 18.288,1.834c-0.897,-3.335 -1.708,-6.687 -2.431,-10.052c-3.072,-14.284 -4.583,-28.807 -4.583,-43.328c0,-14.109 1.426,-28.221 4.325,-42.113c0.542,-2.597 1.136,-5.186 1.781,-7.766Zm376.646,0c0.645,2.58 1.239,5.169 1.781,7.766c2.899,13.892 4.325,28.004 4.325,42.113c0,14.521 -1.511,29.044 -4.583,43.328c-0.723,3.365 -1.534,6.717 -2.431,10.052c6.101,-0.573 12.197,-1.183 18.288,-1.834c10.886,-1.162 21.754,-2.453 32.593,-3.904c2.627,-0.352 5.252,-0.713 7.876,-1.084c0.965,-3.157 1.831,-6.335 2.598,-9.531c4.069,-16.97 5.306,-34.425 3.703,-51.692c-0.885,-9.541 -2.644,-19.022 -5.256,-28.329c-10.702,-1.527 -21.437,-2.883 -32.192,-4.108c-8.888,-1.013 -17.789,-1.934 -26.702,-2.777Zm60.149,7.065c2.505,9.019 4.214,18.198 5.109,27.435c1.682,17.359 0.507,34.916 -3.517,51.992c-0.772,3.275 -1.648,6.531 -2.627,9.765c6.887,-0.983 13.761,-2.037 20.615,-3.176c9.388,-1.559 18.741,-3.275 28.031,-5.216c4.786,-0.999 9.556,-2.058 14.299,-3.195c1.053,-3.758 1.937,-7.551 2.648,-11.369c2.767,-14.865 2.88,-30.079 0.334,-44.973c-0.55,-3.216 -1.223,-6.415 -2.016,-9.592c-2.171,-0.525 -4.347,-1.034 -6.528,-1.528c-6.663,-1.509 -13.367,-2.884 -20.097,-4.159c-8.715,-1.651 -17.474,-3.135 -26.258,-4.493c-3.327,-0.515 -6.658,-1.011 -9.993,-1.491Zm-496.944,0c-3.335,0.48 -6.666,0.976 -9.993,1.491c-8.784,1.358 -17.543,2.842 -26.258,4.493c-6.73,1.275 -13.434,2.65 -20.097,4.159c-2.181,0.494 -4.357,1.003 -6.528,1.528c-0.793,3.177 -1.466,6.376 -2.016,9.592c-2.546,14.894 -2.432,30.108 0.334,44.974c0.711,3.817 1.595,7.61 2.647,11.368c4.744,1.137 9.514,2.196 14.3,3.195c9.29,1.941 18.643,3.657 28.031,5.217c6.854,1.138 13.728,2.192 20.615,3.175c-0.918,-3.032 -1.745,-6.083 -2.481,-9.151c-4.091,-17.061 -5.335,-34.611 -3.724,-51.971c0.878,-9.452 2.607,-18.845 5.17,-28.07Zm-64.15,11.981c-2.774,0.679 -5.538,1.387 -8.29,2.126c-4.243,1.14 -8.459,2.356 -12.63,3.675c-3.265,1.034 -6.503,2.131 -9.698,3.314c-2.451,0.908 -4.877,1.867 -7.264,2.894c-1.908,0.821 -3.792,1.686 -5.636,2.606c-1.455,0.726 -2.886,1.487 -4.282,2.293c-1.082,0.625 -2.143,1.276 -3.174,1.961c-0.78,0.518 -1.544,1.055 -2.284,1.615c-0.615,0.464 -1.214,0.944 -1.792,1.441c-0.409,0.352 -0.808,0.713 -1.194,1.083c-1.315,1.261 -2.494,2.639 -3.382,4.15c-0.871,1.482 -1.445,3.094 -1.559,4.754c-0.005,0.08 -0.01,0.161 -0.013,0.242c0.004,0.364 0.011,0.727 0.019,1.091c0.012,0.154 0.027,0.309 0.047,0.463c0.113,0.886 0.354,1.758 0.699,2.599c0.554,1.349 1.372,2.612 2.334,3.78c1.564,1.896 3.502,3.555 5.571,5.05c1.601,1.157 3.294,2.219 5.037,3.214c2.106,1.201 4.287,2.304 6.511,3.337c3.227,1.499 6.545,2.853 9.91,4.11c3.678,1.374 7.415,2.632 11.186,3.808c5.587,1.741 11.249,3.304 16.951,4.746c1.292,0.326 2.586,0.647 3.882,0.961c-0.993,-3.606 -1.833,-7.242 -2.514,-10.901c-2.785,-14.964 -2.9,-30.281 -0.336,-45.274c0.523,-3.062 1.158,-6.11 1.901,-9.138Zm625.244,0c0.743,3.028 1.378,6.076 1.901,9.138c2.564,14.993 2.449,30.31 -0.336,45.274c-0.681,3.659 -1.521,7.295 -2.514,10.901c1.296,-0.314 2.59,-0.635 3.882,-0.961c5.702,-1.442 11.364,-3.005 16.951,-4.746c3.924,-1.224 7.813,-2.536 11.636,-3.976c3.21,-1.21 6.377,-2.509 9.46,-3.942c2.224,-1.033 4.405,-2.136 6.511,-3.337c1.743,-0.995 3.436,-2.057 5.037,-3.214c2.069,-1.495 4.007,-3.154 5.571,-5.05c0.962,-1.168 1.78,-2.431 2.334,-3.78c0.345,-0.841 0.586,-1.713 0.699,-2.599c0.02,-0.153 0.035,-0.307 0.047,-0.462c0.008,-0.364 0.015,-0.729 0.019,-1.093c-0.003,-0.081 -0.008,-0.161 -0.013,-0.241c-0.119,-1.728 -0.736,-3.402 -1.667,-4.934c-0.919,-1.513 -2.125,-2.89 -3.464,-4.151c-0.394,-0.37 -0.8,-0.731 -1.216,-1.082c-0.512,-0.434 -1.04,-0.853 -1.58,-1.261c-0.74,-0.56 -1.504,-1.097 -2.284,-1.615c-1.031,-0.685 -2.092,-1.336 -3.174,-1.961c-1.396,-0.806 -2.827,-1.567 -4.281,-2.293c-1.845,-0.92 -3.729,-1.785 -5.637,-2.606c-2.387,-1.027 -4.813,-1.986 -7.264,-2.894c-3.195,-1.183 -6.433,-2.28 -9.698,-3.314c-4.171,-1.319 -8.387,-2.535 -12.63,-3.675c-2.752,-0.739 -5.516,-1.447 -8.29,-2.126Zm-596.949,-56.914c-3.861,1.67 -7.685,3.404 -11.463,5.208c-5.782,2.76 -11.459,5.683 -16.99,8.796c-4.409,2.481 -8.725,5.083 -12.918,7.822c-7.194,4.7 -14.042,9.808 -20.284,15.417c-5.079,4.563 -9.76,9.464 -13.801,14.732c-3.706,4.831 -6.871,9.976 -9.246,15.387c-1.466,3.341 -2.629,6.779 -3.438,10.28c-0.492,2.124 -0.853,4.271 -1.079,6.428c0.187,-0.347 0.39,-0.687 0.606,-1.021c1.175,-1.818 2.727,-3.444 4.436,-4.914c0.52,-0.447 1.055,-0.88 1.604,-1.301c0.663,-0.509 1.344,-0.999 2.04,-1.474c1.026,-0.7 2.083,-1.366 3.163,-2.005c1.276,-0.754 2.583,-1.47 3.912,-2.155c1.816,-0.936 3.673,-1.814 5.555,-2.647c2.352,-1.041 4.745,-2.012 7.165,-2.932c3.152,-1.197 6.35,-2.306 9.575,-3.35c4.121,-1.334 8.289,-2.562 12.485,-3.712c3.535,-0.97 7.09,-1.884 10.66,-2.753c1.499,-5.894 3.408,-11.713 5.703,-17.418c3.561,-8.855 8.044,-17.433 13.309,-25.644c1.697,-2.647 3.475,-5.256 5.329,-7.826c1.195,-1.656 2.421,-3.296 3.677,-4.918Zm568.654,0c1.256,1.622 2.482,3.262 3.677,4.918c1.854,2.57 3.632,5.179 5.329,7.826c5.265,8.211 9.749,16.789 13.309,25.644c2.295,5.705 4.204,11.524 5.703,17.418c3.571,0.869 7.126,1.783 10.66,2.753c4.196,1.15 8.364,2.378 12.485,3.712c3.225,1.044 6.423,2.153 9.575,3.35c2.42,0.92 4.813,1.891 7.165,2.932c1.882,0.833 3.739,1.711 5.555,2.647c1.329,0.685 2.636,1.401 3.912,2.155c1.08,0.639 2.137,1.305 3.163,2.005c0.696,0.475 1.377,0.965 2.04,1.474c0.549,0.421 1.084,0.854 1.604,1.301c1.709,1.47 3.261,3.096 4.437,4.914c0.215,0.334 0.418,0.674 0.605,1.021c-0.226,-2.157 -0.587,-4.304 -1.079,-6.428c-0.809,-3.501 -1.972,-6.939 -3.438,-10.28c-2.375,-5.411 -5.54,-10.556 -9.246,-15.387c-3.926,-5.119 -8.457,-9.891 -13.37,-14.344c-6.197,-5.617 -13.004,-10.733 -20.161,-15.441c-4.171,-2.745 -8.467,-5.352 -12.855,-7.838c-5.507,-3.12 -11.16,-6.049 -16.92,-8.815c-4.002,-1.922 -8.055,-3.765 -12.15,-5.537Zm-343.093,-108.803c-18.339,1.545 -36.592,3.831 -54.666,6.898c-23.333,3.959 -46.377,9.217 -68.838,15.917c-19.982,5.961 -39.514,13.064 -58.257,21.467c-15.732,7.053 -30.917,15.026 -45.213,24.041c-13.677,8.626 -26.554,18.216 -38.121,28.865c-9.294,8.556 -17.74,17.802 -24.948,27.721c-3.917,5.391 -7.465,10.978 -10.573,16.74c-3.296,6.112 -6.095,12.421 -8.319,18.877c-2.234,6.486 -3.885,13.118 -4.902,19.823c-0.2,1.316 -0.376,2.635 -0.527,3.955c0.818,-3.032 1.893,-6.013 3.194,-8.919c2.452,-5.477 5.698,-10.681 9.49,-15.566c4.007,-5.163 8.619,-9.974 13.614,-14.462c6.124,-5.502 12.825,-10.525 19.864,-15.156c4.194,-2.759 8.511,-5.38 12.923,-7.879c5.53,-3.133 11.209,-6.076 16.994,-8.854c4.618,-2.218 9.304,-4.332 14.046,-6.352c11.796,-14.875 26.104,-28.267 41.969,-40.055c11.77,-8.745 24.411,-16.626 37.657,-23.664c16.708,-8.879 34.377,-16.421 52.632,-22.693c15.752,-5.413 31.947,-9.881 48.406,-13.441c14.354,-3.104 28.909,-5.519 43.575,-7.263Zm117.533,0c14.665,1.744 29.22,4.159 43.574,7.263c16.459,3.56 32.654,8.028 48.406,13.441c18.255,6.272 35.924,13.814 52.632,22.693c13.246,7.038 25.887,14.919 37.657,23.664c15.865,11.788 30.173,25.18 41.969,40.055c4.742,2.02 9.428,4.134 14.047,6.352c5.784,2.778 11.463,5.721 16.993,8.854c4.412,2.499 8.729,5.12 12.923,7.879c7.039,4.631 13.741,9.654 19.864,15.156c4.995,4.488 9.607,9.299 13.614,14.462c3.792,4.885 7.038,10.089 9.49,15.566c1.3,2.906 2.376,5.886 3.193,8.918c-0.163,-1.425 -0.354,-2.848 -0.574,-4.269c-1.021,-6.597 -2.655,-13.124 -4.854,-19.508c-2.224,-6.456 -5.023,-12.765 -8.319,-18.877c-3.108,-5.762 -6.656,-11.349 -10.573,-16.74c-7.061,-9.718 -15.313,-18.791 -24.384,-27.2c-11.712,-10.858 -24.785,-20.62 -38.685,-29.386c-14.296,-9.015 -29.481,-16.988 -45.213,-24.041c-18.743,-8.403 -38.275,-15.506 -58.257,-21.467c-22.461,-6.7 -45.505,-11.958 -68.838,-15.917c-18.074,-3.067 -36.327,-5.353 -54.665,-6.898Zm151.69,84.289c2,2.312 3.941,4.661 5.821,7.045c7.941,10.066 14.795,20.756 20.393,31.912c4.671,9.307 8.465,18.935 11.312,28.765c0.064,0.222 0.128,0.445 0.192,0.668c3.503,0.502 7.003,1.023 10.499,1.564c9.045,1.398 18.063,2.929 27.034,4.64c6.94,1.322 13.853,2.752 20.72,4.328c1.549,0.355 3.095,0.718 4.639,1.089c-1.47,-5.678 -3.321,-11.284 -5.533,-16.785c-3.539,-8.8 -7.996,-17.327 -13.229,-25.488c-1.687,-2.632 -3.455,-5.227 -5.298,-7.781c-1.549,-2.147 -3.15,-4.264 -4.801,-6.352c-2.973,-1.264 -5.967,-2.49 -8.98,-3.682c-14.574,-5.767 -29.574,-10.736 -44.803,-15.091c-5.954,-1.703 -11.945,-3.311 -17.966,-4.832Zm-420.914,0c-5.721,1.445 -11.414,2.969 -17.075,4.578c-15.268,4.339 -30.308,9.292 -44.926,15.042c-3.272,1.287 -6.523,2.614 -9.748,3.985c-1.651,2.088 -3.252,4.205 -4.8,6.352c-1.844,2.554 -3.612,5.149 -5.299,7.781c-5.233,8.161 -9.69,16.688 -13.229,25.488c-2.212,5.501 -4.063,11.107 -5.532,16.785c1.543,-0.371 3.089,-0.734 4.638,-1.089c6.867,-1.576 13.78,-3.006 20.72,-4.328c8.971,-1.711 17.989,-3.242 27.034,-4.64c3.496,-0.541 6.996,-1.062 10.499,-1.564c0.006,-0.021 0.012,-0.042 0.018,-0.063c2.809,-9.84 6.566,-19.48 11.202,-28.802c5.555,-11.171 12.37,-21.88 20.273,-31.967c2.006,-2.56 4.082,-5.08 6.225,-7.558Zm362.745,-12.031c6.494,8.405 12.245,17.231 17.238,26.348c8.224,15.02 14.398,30.84 18.537,47.034c9.051,0.854 18.091,1.789 27.117,2.817c10.602,1.207 21.186,2.542 31.737,4.042c-2.783,-9.664 -6.485,-19.134 -11.041,-28.295c-5.526,-11.113 -12.306,-21.767 -20.169,-31.801c-2.283,-2.915 -4.657,-5.776 -7.118,-8.583c-10.966,-2.734 -22.033,-5.18 -33.164,-7.374c-7.682,-1.514 -15.397,-2.908 -23.137,-4.188Zm-304.576,0c-7.404,1.225 -14.785,2.554 -22.137,3.992c-11.468,2.244 -22.869,4.754 -34.164,7.57c-2.317,2.643 -4.557,5.334 -6.717,8.072c-7.899,10.014 -14.719,20.65 -20.288,31.747c-4.55,9.068 -8.264,18.441 -11.076,28.01c-0.083,0.283 -0.165,0.567 -0.247,0.85c10.551,-1.5 21.135,-2.835 31.737,-4.042c9.026,-1.028 18.066,-1.963 27.117,-2.817c4.139,-16.194 10.313,-32.014 18.537,-47.034c4.993,-9.116 10.744,-17.943 17.238,-26.348Zm247.639,-7.426c0.412,0.741 0.818,1.484 1.22,2.229c3.473,6.441 6.582,13.024 9.369,19.703c3.094,7.416 5.793,14.951 8.138,22.564c2.644,8.586 4.837,17.272 6.619,26.018c0.365,1.79 0.712,3.582 1.043,5.376c15.649,0.871 31.283,1.932 46.894,3.21c6.07,0.497 12.137,1.027 18.2,1.593c-4.168,-16.196 -10.382,-32.013 -18.658,-47.019c-5.064,-9.182 -10.903,-18.065 -17.5,-26.513c-15.977,-2.61 -32.064,-4.738 -48.208,-6.439c-2.371,-0.25 -4.743,-0.49 -7.117,-0.722Zm-190.702,0c-2.003,0.196 -4.005,0.397 -6.006,0.606c-16.517,1.719 -32.975,3.885 -49.319,6.555c-4.604,5.896 -8.839,12.003 -12.697,18.273c-1.671,2.716 -3.272,5.464 -4.803,8.24c-8.276,15.006 -14.49,30.823 -18.658,47.019c6.063,-0.566 12.13,-1.096 18.2,-1.593c15.611,-1.278 31.245,-2.339 46.894,-3.21c0.331,-1.794 0.678,-3.586 1.043,-5.376c1.782,-8.746 3.975,-17.432 6.619,-26.018c2.345,-7.613 5.044,-15.148 8.138,-22.564c2.787,-6.679 5.896,-13.262 9.369,-19.703c0.402,-0.745 0.808,-1.488 1.22,-2.229Zm52.438,-3.644c-17.059,0.722 -34.094,1.883 -51.067,3.512c-0.601,1.074 -1.191,2.153 -1.771,3.235c-3.533,6.592 -6.685,13.331 -9.501,20.169c-2.983,7.242 -5.59,14.595 -7.859,22.022c-2.561,8.382 -4.693,16.858 -6.432,25.391c-0.348,1.711 -0.681,3.424 -0.998,5.139c6.716,-0.37 13.435,-0.705 20.156,-1.007c14.86,-0.669 29.73,-1.179 44.605,-1.539c0.475,-5.338 1.022,-10.671 1.646,-15.998c1.105,-9.426 2.448,-18.833 4.087,-28.203c1.491,-8.529 3.224,-17.028 5.281,-25.471c0.59,-2.421 1.206,-4.839 1.853,-7.25Zm85.826,0c0.565,2.106 1.107,4.217 1.628,6.331c2.072,8.404 3.82,16.866 5.325,25.357c1.721,9.711 3.123,19.463 4.268,29.236c0.624,5.327 1.171,10.66 1.646,15.998c14.875,0.36 29.745,0.87 44.605,1.539c6.721,0.302 13.44,0.637 20.156,1.007c-0.136,-0.739 -0.276,-1.477 -0.418,-2.214c-1.802,-9.337 -4.068,-18.61 -6.846,-27.771c-2.412,-7.956 -5.21,-15.829 -8.441,-23.571c-2.71,-6.494 -5.725,-12.896 -9.084,-19.165c-0.581,-1.083 -1.171,-2.161 -1.772,-3.235c-16.973,-1.629 -34.008,-2.79 -51.067,-3.512Zm-43.499,-0.902c-0.208,0 -0.416,0 -0.625,0c-8.404,0.015 -16.807,0.123 -25.207,0.34c-5.094,0.132 -10.188,0.302 -15.279,0.511c-0.672,2.496 -1.311,4.998 -1.922,7.505c-2.052,8.424 -3.782,16.904 -5.269,25.414c-1.636,9.354 -2.977,18.745 -4.08,28.156c-0.618,5.284 -1.162,10.575 -1.634,15.87c7.795,-0.185 15.592,-0.328 23.39,-0.433c9.595,-0.128 19.192,-0.192 28.788,-0.207c0.613,0 1.226,0 1.838,0l0,-77.156Zm1.172,0.001l0,77.155c0.613,0 1.225,0 1.838,0c9.596,0.015 19.193,0.079 28.788,0.207c7.798,0.105 15.595,0.248 23.39,0.433c-0.472,-5.295 -1.015,-10.586 -1.634,-15.87c-1.103,-9.411 -2.444,-18.802 -4.08,-28.156c-1.487,-8.51 -3.217,-16.99 -5.269,-25.414c-0.611,-2.507 -1.25,-5.009 -1.922,-7.504c-4.299,-0.177 -8.599,-0.326 -12.901,-0.447c-8.386,-0.237 -16.776,-0.364 -25.167,-0.399c-1.014,-0.003 -2.029,-0.005 -3.043,-0.005Zm-43.343,-60.918c-19.983,1.715 -39.826,4.652 -59.296,8.864c-16.409,3.549 -32.553,8.003 -48.257,13.398c-18.191,6.251 -35.8,13.767 -52.45,22.615c-13.192,7.01 -25.784,14.859 -37.507,23.569c-15.265,11.343 -29.083,24.177 -40.593,38.395c2.368,-0.991 4.749,-1.959 7.142,-2.906c14.612,-5.782 29.653,-10.765 44.923,-15.131c6.46,-1.848 12.964,-3.585 19.502,-5.219c5.585,-6.348 11.61,-12.414 18.022,-18.164c12.184,-10.928 25.763,-20.715 40.373,-29.203c12.214,-7.096 25.149,-13.285 38.6,-18.505c11.409,-4.427 23.188,-8.156 35.214,-11.165c11.042,-2.762 22.292,-4.917 33.656,-6.457c0.224,-0.031 0.447,-0.061 0.671,-0.091Zm85.514,0.001c11.336,1.511 22.562,3.634 33.582,6.362c12.042,2.98 23.839,6.682 35.267,11.083c13.473,5.188 26.434,11.347 38.677,18.416c14.643,8.454 28.258,18.209 40.484,29.108c6.601,5.884 12.795,12.101 18.526,18.615c6.538,1.634 13.042,3.371 19.502,5.219c15.27,4.366 30.311,9.349 44.924,15.131c2.392,0.947 4.773,1.915 7.14,2.906c-11.509,-14.218 -25.327,-27.052 -40.592,-38.395c-11.723,-8.71 -24.315,-16.559 -37.507,-23.569c-16.65,-8.848 -34.259,-16.364 -52.45,-22.615c-15.704,-5.395 -31.848,-9.849 -48.257,-13.398c-19.47,-4.212 -39.313,-7.149 -59.296,-8.863Zm-12.548,-0.415c8.396,1.351 16.666,3.263 24.719,5.701c6.902,2.09 13.642,4.564 20.177,7.385c5.48,2.366 10.816,4.975 15.986,7.803c4.348,2.379 8.579,4.912 12.684,7.585c3.482,2.267 6.874,4.634 10.171,7.093c2.852,2.127 5.634,4.323 8.344,6.582c2.276,1.898 4.502,3.84 6.675,5.824c8.233,7.516 15.71,15.616 22.414,24.161c7.797,1.279 15.568,2.672 23.307,4.186c10.981,2.149 21.9,4.541 32.723,7.211c-5.289,-5.93 -10.967,-11.608 -16.987,-17.007c-12.297,-11.029 -26.021,-20.89 -40.796,-29.42c-11.979,-6.916 -24.648,-12.958 -37.813,-18.066c-11.358,-4.408 -23.085,-8.121 -35.059,-11.116c-10.994,-2.751 -22.195,-4.896 -33.509,-6.43c-4.331,-0.586 -8.678,-1.084 -13.036,-1.492Zm-60.418,0c-4.096,0.384 -8.182,0.846 -12.254,1.388c-11.326,1.506 -22.54,3.624 -33.55,6.349c-11.988,2.967 -23.733,6.653 -35.111,11.034c-13.412,5.165 -26.314,11.297 -38.502,18.333c-14.574,8.414 -28.126,18.123 -40.295,28.972c-6.206,5.533 -12.052,11.361 -17.488,17.455c10.823,-2.671 21.742,-5.062 32.723,-7.211c7.739,-1.514 15.51,-2.907 23.307,-4.186c6.704,-8.545 14.181,-16.645 22.414,-24.161c2.173,-1.984 4.399,-3.926 6.675,-5.824c2.71,-2.259 5.492,-4.455 8.344,-6.582c3.297,-2.459 6.689,-4.826 10.171,-7.093c4.105,-2.673 8.337,-5.206 12.684,-7.585c5.171,-2.828 10.506,-5.437 15.986,-7.803c6.535,-2.821 13.275,-5.295 20.177,-7.385c8.053,-2.438 16.323,-4.35 24.719,-5.701Zm46.996,-0.663c1.634,0.342 3.254,0.732 4.857,1.168c1.834,0.499 3.646,1.057 5.431,1.671c1.419,0.488 2.822,1.011 4.207,1.567c9.912,3.976 18.84,9.584 26.743,16.023c1.379,1.123 2.728,2.273 4.048,3.446c1.691,1.503 3.335,3.045 4.933,4.62c1.977,1.948 3.884,3.947 5.726,5.988c2.442,2.706 4.769,5.488 6.991,8.329c2.827,3.615 5.484,7.328 7.985,11.114c2.499,3.782 4.844,7.637 7.048,11.55c2.249,0.217 4.497,0.443 6.743,0.677c16.16,1.682 32.263,3.791 48.259,6.38c-6.502,-8.199 -13.723,-15.979 -21.649,-23.214c-2.305,-2.104 -4.669,-4.161 -7.09,-6.167c-2.7,-2.238 -5.473,-4.413 -8.315,-6.519c-3.285,-2.435 -6.664,-4.778 -10.132,-7.021c-3.926,-2.539 -7.966,-4.949 -12.114,-7.218c-4.966,-2.716 -10.085,-5.23 -15.34,-7.518c-6.48,-2.821 -13.165,-5.299 -20.012,-7.396c-10.667,-3.267 -21.725,-5.604 -32.953,-6.926c-1.785,-0.21 -3.574,-0.395 -5.366,-0.554Zm-33.574,0c-1.792,0.159 -3.581,0.344 -5.365,0.554c-11.229,1.322 -22.287,3.659 -32.954,6.926c-6.847,2.097 -13.532,4.575 -20.012,7.396c-5.255,2.288 -10.374,4.802 -15.34,7.518c-4.148,2.269 -8.188,4.679 -12.114,7.218c-3.468,2.243 -6.846,4.586 -10.132,7.021c-2.842,2.106 -5.614,4.281 -8.315,6.519c-10.749,8.907 -20.344,18.795 -28.738,29.381c15.995,-2.589 32.099,-4.698 48.258,-6.38c2.246,-0.234 4.494,-0.46 6.743,-0.677c2.204,-3.913 4.549,-7.768 7.048,-11.55c2.501,-3.786 5.158,-7.499 7.985,-11.114c2.222,-2.841 4.549,-5.623 6.991,-8.329c1.842,-2.041 3.749,-4.04 5.726,-5.988c1.598,-1.575 3.242,-3.117 4.933,-4.62c1.32,-1.173 2.669,-2.323 4.048,-3.446c7.903,-6.439 16.831,-12.047 26.743,-16.023c1.385,-0.556 2.788,-1.079 4.207,-1.567c1.786,-0.614 3.597,-1.172 5.431,-1.671c1.603,-0.436 3.223,-0.826 4.857,-1.168Zm10.178,-0.47c-2.054,0.17 -4.098,0.419 -6.126,0.744c-2.628,0.422 -5.227,0.972 -7.783,1.641c-1.939,0.508 -3.854,1.083 -5.739,1.722c-1.401,0.474 -2.785,0.983 -4.151,1.524c-9.947,3.938 -18.897,9.546 -26.808,15.991c-1.366,1.113 -2.703,2.253 -4.012,3.416c-1.677,1.491 -3.307,3.02 -4.892,4.582c-2.073,2.042 -4.069,4.141 -5.993,6.287c-2.421,2.7 -4.727,5.474 -6.929,8.306c-2.804,3.608 -5.438,7.311 -7.918,11.088c-2.265,3.447 -4.401,6.956 -6.42,10.513c16.865,-1.605 33.791,-2.749 50.741,-3.461c0.761,-2.799 1.565,-5.591 2.415,-8.372c1.29,-4.219 2.689,-8.415 4.232,-12.573c1.227,-3.309 2.545,-6.594 3.983,-9.84c1.121,-2.534 2.316,-5.044 3.606,-7.519c1.03,-1.976 2.121,-3.93 3.291,-5.849c0.919,-1.508 1.886,-2.994 2.915,-4.449c0.791,-1.12 1.619,-2.221 2.491,-3.296c0.704,-0.868 1.436,-1.718 2.203,-2.545c0.608,-0.657 1.238,-1.3 1.893,-1.923c0.508,-0.483 1.03,-0.955 1.569,-1.412c0.401,-0.341 0.811,-0.674 1.232,-0.998c1.852,-1.426 3.923,-2.694 6.2,-3.577Zm13.217,0c2.206,0.855 4.219,2.072 6.025,3.442c0.42,0.319 0.831,0.648 1.233,0.985c0.539,0.452 1.062,0.918 1.571,1.396c0.655,0.617 1.286,1.252 1.895,1.903c0.768,0.82 1.501,1.663 2.206,2.523c0.873,1.066 1.702,2.159 2.495,3.27c1.03,1.445 1.999,2.922 2.919,4.42c1.172,1.908 2.265,3.851 3.297,5.816c1.293,2.462 2.49,4.961 3.614,7.482c1.387,3.112 2.663,6.261 3.853,9.431c1.551,4.129 2.957,8.296 4.254,12.488c0.945,3.054 1.832,6.121 2.669,9.197c16.95,0.712 33.876,1.856 50.741,3.461c-2.019,-3.557 -4.155,-7.066 -6.42,-10.513c-2.48,-3.777 -5.114,-7.48 -7.918,-11.088c-2.202,-2.832 -4.508,-5.606 -6.929,-8.306c-1.924,-2.146 -3.92,-4.245 -5.992,-6.287c-1.586,-1.562 -3.216,-3.091 -4.893,-4.582c-1.309,-1.163 -2.646,-2.303 -4.012,-3.416c-7.911,-6.445 -16.861,-12.053 -26.807,-15.991c-1.367,-0.541 -2.751,-1.05 -4.152,-1.524c-1.885,-0.639 -3.8,-1.214 -5.739,-1.722c-2.556,-0.669 -5.155,-1.219 -7.783,-1.641c-2.028,-0.325 -4.073,-0.574 -6.127,-0.744Zm-7.194,-0.26c-0.615,0.024 -1.227,0.08 -1.834,0.172c-0.405,0.062 -0.807,0.139 -1.205,0.229c-3.098,0.709 -5.853,2.246 -8.229,4.049c-0.466,0.353 -0.919,0.718 -1.361,1.093c-0.523,0.445 -1.03,0.903 -1.522,1.371c-0.639,0.609 -1.254,1.235 -1.847,1.876c-0.751,0.811 -1.469,1.644 -2.158,2.494c-0.918,1.131 -1.786,2.292 -2.614,3.473c-1.014,1.448 -1.968,2.926 -2.874,4.424c-1.157,1.913 -2.236,3.86 -3.255,5.828c-1.278,2.47 -2.462,4.975 -3.574,7.502c-1.373,3.122 -2.637,6.279 -3.816,9.459c-1.536,4.141 -2.93,8.321 -4.215,12.524c-0.82,2.68 -1.596,5.371 -2.332,8.069c4.988,-0.203 9.977,-0.369 14.968,-0.498c8.412,-0.218 16.826,-0.326 25.242,-0.341c0.209,0 0.417,0 0.626,0l0,-61.724Zm1.172,0l0,61.724c0.209,0 0.418,0 0.626,0c8.416,0.015 16.83,0.123 25.242,0.341c4.991,0.129 9.981,0.295 14.968,0.498c-0.736,-2.698 -1.512,-5.389 -2.332,-8.069c-1.285,-4.203 -2.679,-8.383 -4.215,-12.524c-1.179,-3.18 -2.443,-6.337 -3.816,-9.459c-1.112,-2.527 -2.296,-5.032 -3.574,-7.502c-1.019,-1.968 -2.098,-3.915 -3.255,-5.828c-0.906,-1.498 -1.86,-2.976 -2.874,-4.424c-0.828,-1.181 -1.696,-2.342 -2.614,-3.473c-0.689,-0.85 -1.407,-1.683 -2.158,-2.494c-0.593,-0.641 -1.208,-1.267 -1.847,-1.876c-0.492,-0.468 -0.999,-0.926 -1.522,-1.371c-0.442,-0.375 -0.895,-0.74 -1.361,-1.093c-2.332,-1.77 -5.028,-3.283 -8.057,-4.008c-0.397,-0.095 -0.799,-0.177 -1.205,-0.243c-0.663,-0.108 -1.332,-0.172 -2.006,-0.199Z"/></g></svg>